<svg width="97" height="100" viewBox="0 0 97 100" xmlns="http://www.w3.org/2000/svg">
  <defs>
    <linearGradient id="tailwindGradient" x1="-2.778%" y1="32%" x2="100%" y2="67.556%">
      <stop offset="0%" stop-color="#2298bd" />
      <stop offset="100%" stop-color="#0ed7b5" />
    </linearGradient>
  </defs>
  <path
    d="M48.5 0C35.57 0 27.5 6.7 24.2 20.1C29.05 13.4 34.9 10.9 41.75 12.6C45.65 13.6 48.6 16.6 51.9 20.1C55.15 23.55 59.3 27.5 68 27.5C80.93 27.5 89 20.8 92.3 7.4C87.45 14.1 81.6 16.6 74.75 14.9C70.85 13.9 67.9 10.9 64.6 7.4C61.35 3.95 57.2 0 48.5 0ZM24.2 27.5C11.27 27.5 3.2 34.2 0 47.6C4.85 40.9 10.7 38.4 17.55 40.1C21.45 41.1 24.4 44.1 27.7 47.6C30.95 51.05 35.1 55 43.8 55C56.73 55 64.8 48.3 68.1 34.9C63.25 41.6 57.4 44.1 50.55 42.4C46.65 41.4 43.7 38.4 40.4 34.9C37.15 31.45 33 27.5 24.2 27.5Z"
    fill="url(#tailwindGradient)"
    transform="scale(1.2) translate(-8, 6)"
  />
</svg>